<svg width="32" height="32" viewBox="0 0 32 32" fill="none" xmlns="http://www.w3.org/2000/svg">
<rect width="27.7801" height="4.65773" transform="matrix(0.504484 -0.863421 0.868591 0.49553 5 27.3839)" fill="#2495A9"/>
<rect width="27.7801" height="4.65773" transform="matrix(0.504484 -0.863421 0.868591 0.49553 11.0311 26.2939)" fill="#52D3C9"/>
<path d="M17.14 2.35687C20.356 2.35687 23.128 3.37687 25.456 5.41687L22.468 8.54887C21.58 7.87687 20.752 7.39687 19.984 7.10887C19.24 6.79687 18.376 6.64087 17.392 6.64087C15.544 6.64087 14.068 7.37287 12.964 8.83687C11.86 10.2769 11.308 12.4729 11.308 15.4249C11.308 18.6169 11.728 20.8849 12.568 22.2289C13.408 23.5489 14.716 24.2089 16.492 24.2089C17.74 24.2089 18.868 23.9329 19.876 23.3809V17.7289H16.636L16.06 13.5529H25.6V25.9009C24.304 26.7409 22.876 27.3889 21.316 27.8449C19.756 28.3009 18.196 28.5289 16.636 28.5289C12.844 28.5289 9.988 27.4249 8.068 25.2169C6.148 22.9849 5.188 19.7209 5.188 15.4249C5.188 12.6889 5.704 10.3369 6.736 8.36887C7.792 6.40087 9.22 4.91287 11.02 3.90487C12.844 2.87287 14.884 2.35687 17.14 2.35687Z" fill="black"/>
</svg>
