<svg width="311" height="52" viewBox="0 0 311 52" fill="none" xmlns="http://www.w3.org/2000/svg">
<path d="M16.52 4.92002C20.808 4.92002 24.504 6.28002 27.608 9.00002L23.624 13.176C22.44 12.28 21.336 11.64 20.312 11.256C19.32 10.84 18.168 10.632 16.856 10.632C14.392 10.632 12.424 11.608 10.952 13.56C9.47999 15.48 8.74399 18.408 8.74399 22.344C8.74399 26.6 9.30398 29.624 10.424 31.416C11.544 33.176 13.288 34.056 15.656 34.056C17.32 34.056 18.824 33.688 20.168 32.952V25.416H15.848L15.08 19.848H27.8V36.312C26.072 37.432 24.168 38.296 22.088 38.904C20.008 39.512 17.928 39.816 15.848 39.816C10.792 39.816 6.98398 38.344 4.42398 35.4C1.86398 32.424 0.583984 28.072 0.583984 22.344C0.583984 18.696 1.27198 15.56 2.64798 12.936C4.05598 10.312 5.95998 8.32802 8.35998 6.98402C10.792 5.60802 13.512 4.92002 16.52 4.92002Z" fill="black"/>
<path d="M53.1695 31.608C53.1695 32.568 53.2975 33.272 53.5535 33.72C53.8415 34.168 54.2895 34.504 54.8975 34.728L53.3135 39.672C51.7455 39.544 50.4655 39.208 49.4735 38.664C48.4815 38.088 47.7135 37.192 47.1695 35.976C45.5055 38.536 42.9455 39.816 39.4895 39.816C36.9615 39.816 34.9455 39.08 33.4415 37.608C31.9375 36.136 31.1855 34.216 31.1855 31.848C31.1855 29.064 32.2095 26.936 34.2575 25.464C36.3055 23.992 39.2655 23.256 43.1375 23.256H45.7295V22.152C45.7295 20.648 45.4095 19.624 44.7695 19.08C44.1295 18.504 43.0095 18.216 41.4095 18.216C40.5775 18.216 39.5695 18.344 38.3855 18.6C37.2015 18.824 35.9855 19.144 34.7375 19.56L33.0095 14.568C34.6095 13.96 36.2415 13.496 37.9055 13.176C39.6015 12.856 41.1695 12.696 42.6095 12.696C46.2575 12.696 48.9295 13.448 50.6255 14.952C52.3215 16.456 53.1695 18.712 53.1695 21.72V31.608ZM41.6975 34.392C43.4255 34.392 44.7695 33.576 45.7295 31.944V27.432H43.8575C42.1295 27.432 40.8335 27.736 39.9695 28.344C39.1375 28.952 38.7215 29.896 38.7215 31.176C38.7215 32.2 38.9775 33 39.4895 33.576C40.0335 34.12 40.7695 34.392 41.6975 34.392Z" fill="black"/>
<path d="M73.6584 12.696C76.6984 12.696 79.0344 13.896 80.6664 16.296C82.2984 18.664 83.1144 21.992 83.1144 26.28C83.1144 28.904 82.6984 31.24 81.8664 33.288C81.0664 35.336 79.8984 36.936 78.3624 38.088C76.8584 39.24 75.0664 39.816 72.9864 39.816C71.6104 39.816 70.3464 39.528 69.1944 38.952C68.0744 38.376 67.1144 37.576 66.3144 36.552L65.9304 39H59.2104V3.38402L66.7944 2.56802V16.104C67.5624 15.048 68.5384 14.216 69.7224 13.608C70.9384 13 72.2504 12.696 73.6584 12.696ZM70.7784 34.296C73.7544 34.296 75.2424 31.624 75.2424 26.28C75.2424 23.24 74.8904 21.144 74.1864 19.992C73.4824 18.84 72.4584 18.264 71.1144 18.264C69.4184 18.264 67.9784 19.256 66.7944 21.24V31.848C67.2744 32.616 67.8504 33.224 68.5224 33.672C69.2264 34.088 69.9784 34.296 70.7784 34.296Z" fill="black"/>
<path d="M101.675 12.792C102.603 12.792 103.451 12.904 104.219 13.128L103.019 20.472C102.059 20.248 101.291 20.136 100.715 20.136C99.211 20.136 98.059 20.664 97.259 21.72C96.491 22.744 95.883 24.296 95.435 26.376V39H87.851V13.512H94.475L95.099 18.456C95.675 16.696 96.539 15.32 97.691 14.328C98.875 13.304 100.203 12.792 101.675 12.792Z" fill="black"/>
<path d="M114.701 13.512V39H107.117V13.512H114.701ZM110.861 0.0720215C112.173 0.0720215 113.245 0.488022 114.077 1.32002C114.941 2.12002 115.373 3.14402 115.373 4.39202C115.373 5.64002 114.941 6.68002 114.077 7.51202C113.245 8.31202 112.173 8.71202 110.861 8.71202C109.549 8.71202 108.477 8.31202 107.645 7.51202C106.813 6.68002 106.397 5.64002 106.397 4.39202C106.397 3.14402 106.813 2.12002 107.645 1.32002C108.477 0.488022 109.549 0.0720215 110.861 0.0720215Z" fill="black"/>
<path d="M142.887 25.752C142.887 26.808 142.839 27.72 142.743 28.488H126.951C127.207 30.632 127.815 32.136 128.775 33C129.735 33.864 131.063 34.296 132.759 34.296C133.783 34.296 134.775 34.12 135.735 33.768C136.695 33.384 137.735 32.808 138.855 32.04L141.975 36.264C138.999 38.632 135.687 39.816 132.039 39.816C127.911 39.816 124.743 38.6 122.535 36.168C120.327 33.736 119.223 30.472 119.223 26.376C119.223 23.784 119.687 21.464 120.615 19.416C121.543 17.336 122.903 15.704 124.695 14.52C126.487 13.304 128.631 12.696 131.127 12.696C134.807 12.696 137.687 13.848 139.767 16.152C141.847 18.456 142.887 21.656 142.887 25.752ZM135.447 23.592C135.383 19.688 134.007 17.736 131.319 17.736C130.007 17.736 128.983 18.216 128.247 19.176C127.543 20.136 127.111 21.72 126.951 23.928H135.447V23.592Z" fill="black"/>
<path d="M153.916 39.816C151.708 39.816 149.98 39.192 148.732 37.944C147.516 36.664 146.908 34.856 146.908 32.52V3.38402L154.492 2.56802V32.232C154.492 33.288 154.924 33.816 155.788 33.816C156.236 33.816 156.652 33.736 157.036 33.576L158.524 38.952C157.148 39.528 155.612 39.816 153.916 39.816Z" fill="black"/>
<path d="M172.932 39V5.73602H192.756L191.94 11.352H180.804V20.184H190.5V25.8H180.804V39H172.932Z" fill="black"/>
<path d="M208.316 12.792C209.244 12.792 210.092 12.904 210.86 13.128L209.66 20.472C208.7 20.248 207.932 20.136 207.356 20.136C205.852 20.136 204.7 20.664 203.9 21.72C203.132 22.744 202.524 24.296 202.076 26.376V39H194.492V13.512H201.116L201.74 18.456C202.316 16.696 203.18 15.32 204.332 14.328C205.516 13.304 206.844 12.792 208.316 12.792Z" fill="black"/>
<path d="M232.326 31.608C232.326 32.568 232.454 33.272 232.71 33.72C232.998 34.168 233.446 34.504 234.054 34.728L232.47 39.672C230.902 39.544 229.622 39.208 228.63 38.664C227.638 38.088 226.87 37.192 226.326 35.976C224.662 38.536 222.102 39.816 218.646 39.816C216.118 39.816 214.102 39.08 212.598 37.608C211.094 36.136 210.342 34.216 210.342 31.848C210.342 29.064 211.366 26.936 213.414 25.464C215.462 23.992 218.422 23.256 222.294 23.256H224.886V22.152C224.886 20.648 224.566 19.624 223.926 19.08C223.286 18.504 222.166 18.216 220.566 18.216C219.734 18.216 218.726 18.344 217.542 18.6C216.358 18.824 215.142 19.144 213.894 19.56L212.166 14.568C213.766 13.96 215.398 13.496 217.062 13.176C218.758 12.856 220.326 12.696 221.766 12.696C225.414 12.696 228.086 13.448 229.782 14.952C231.478 16.456 232.326 18.712 232.326 21.72V31.608ZM220.854 34.392C222.582 34.392 223.926 33.576 224.886 31.944V27.432H223.014C221.286 27.432 219.99 27.736 219.126 28.344C218.294 28.952 217.878 29.896 217.878 31.176C217.878 32.2 218.134 33 218.646 33.576C219.19 34.12 219.926 34.392 220.854 34.392Z" fill="black"/>
<path d="M253.295 12.696C255.503 12.696 257.231 13.368 258.479 14.712C259.727 16.056 260.351 17.944 260.351 20.376V39H252.767V21.672C252.767 20.392 252.559 19.512 252.143 19.032C251.759 18.52 251.167 18.264 250.367 18.264C248.831 18.264 247.359 19.368 245.951 21.576V39H238.367V13.512H244.991L245.519 16.536C246.607 15.256 247.775 14.296 249.023 13.656C250.303 13.016 251.727 12.696 253.295 12.696Z" fill="black"/>
<path d="M285.846 36.792C283.67 38.52 281.254 39.512 278.598 39.768V41.304C280.294 41.496 281.542 41.992 282.342 42.792C283.174 43.624 283.59 44.712 283.59 46.056C283.59 47.688 282.934 49.016 281.622 50.04C280.342 51.064 278.614 51.576 276.438 51.576C275.35 51.576 274.342 51.432 273.414 51.144C272.486 50.888 271.702 50.552 271.062 50.136L272.79 46.632C273.878 47.176 274.902 47.448 275.862 47.448C277.366 47.448 278.118 46.968 278.118 46.008C278.118 45.432 277.766 45.016 277.062 44.76C276.358 44.504 275.238 44.376 273.702 44.376L274.278 39.528C271.27 38.92 268.902 37.464 267.174 35.16C265.478 32.856 264.63 29.96 264.63 26.472C264.63 23.784 265.142 21.4 266.166 19.32C267.19 17.24 268.646 15.624 270.534 14.472C272.422 13.288 274.614 12.696 277.11 12.696C278.87 12.696 280.454 12.952 281.862 13.464C283.27 13.976 284.598 14.76 285.846 15.816L282.582 20.328C280.982 19.112 279.366 18.504 277.734 18.504C276.038 18.504 274.758 19.128 273.894 20.376C273.03 21.624 272.598 23.64 272.598 26.424C272.598 29.112 273.03 31.016 273.894 32.136C274.758 33.256 276.006 33.816 277.638 33.816C278.502 33.816 279.286 33.688 279.99 33.432C280.694 33.144 281.542 32.696 282.534 32.088L285.846 36.792Z" fill="black"/>
<path d="M308.826 31.608C308.826 32.568 308.954 33.272 309.21 33.72C309.498 34.168 309.946 34.504 310.554 34.728L308.97 39.672C307.402 39.544 306.122 39.208 305.13 38.664C304.138 38.088 303.37 37.192 302.826 35.976C301.162 38.536 298.602 39.816 295.146 39.816C292.618 39.816 290.602 39.08 289.098 37.608C287.594 36.136 286.842 34.216 286.842 31.848C286.842 29.064 287.866 26.936 289.914 25.464C291.962 23.992 294.922 23.256 298.794 23.256H301.386V22.152C301.386 20.648 301.066 19.624 300.426 19.08C299.786 18.504 298.666 18.216 297.066 18.216C296.234 18.216 295.226 18.344 294.042 18.6C292.858 18.824 291.642 19.144 290.394 19.56L288.666 14.568C290.266 13.96 291.898 13.496 293.562 13.176C295.258 12.856 296.826 12.696 298.266 12.696C301.914 12.696 304.586 13.448 306.282 14.952C307.978 16.456 308.826 18.712 308.826 21.72V31.608ZM297.354 34.392C299.082 34.392 300.426 33.576 301.386 31.944V27.432H299.514C297.786 27.432 296.49 27.736 295.626 28.344C294.794 28.952 294.378 29.896 294.378 31.176C294.378 32.2 294.634 33 295.146 33.576C295.69 34.12 296.426 34.392 297.354 34.392Z" fill="black"/>
</svg>
